<svg xmlns="http://www.w3.org/2000/svg" xmlns:xlink="http://www.w3.org/1999/xlink" viewBox="0 0 703.43 335.21"><defs><style>.cls-1{fill:none;}.cls-2{clip-path:url(#clip-path);}.cls-3{fill:#f2e4d7;}</style><clipPath id="clip-path" transform="translate(-3.23 -3.81)"><rect id="SVGID" class="cls-1" width="709.88" height="342.82"/></clipPath></defs><title>Asset 30</title><g id="Layer_2" data-name="Layer 2"><g id="Layer_1-2" data-name="Layer 1"><g class="cls-2"><path class="cls-3" d="M706.06,274.51C684.26,395.73,4.35,318.28,3.23,266.89c-.32-14.77,55.47-25.69,64.48-76.15,4-22.65-5.64-29.18,0-45.69,12.58-36.87,65.78-18.82,109.62-60.92,34.61-33.25,20-62.31,45.13-76.15C270-18.17,319.85,86.91,428.8,91.74c32.83,1.46,36.17-7.73,58,0,59.61,21.09,76,104,116.07,99,15.54-1.92,17-14.86,32.24-15.23C669.76,174.68,712.16,240.6,706.06,274.51Z" transform="translate(-3.23 -3.81)"/></g></g></g></svg>