<svg xmlns="http://www.w3.org/2000/svg" xmlns:xlink="http://www.w3.org/1999/xlink" viewBox="0 0 710.21 359.44"><defs><style>.cls-1{fill:none;}.cls-2{clip-path:url(#clip-path);}.cls-3{fill:#f9ef95;}</style><clipPath id="clip-path" transform="translate(-3.26 -4.08)"><rect id="SVGID" class="cls-1" width="716.72" height="367.61"/></clipPath></defs><title>Asset 25</title><g id="Layer_2" data-name="Layer 2"><g id="Layer_1-2" data-name="Layer 1"><g class="cls-2"><path class="cls-3" d="M712.87,294.35c-22,130-708.48,46.94-709.61-8.16-.33-15.85,56-27.55,65.1-81.66,4.08-24.28-5.69-31.29,0-49C81.06,116,134.78,135.36,179,90.21c35-35.65,20.17-66.82,45.57-81.65,48-28,98.32,84.63,208.32,89.82,33.15,1.56,36.52-8.3,58.6,0,60.18,22.61,76.7,111.47,117.18,106.15,15.7-2.06,17.2-15.94,32.55-16.33C676.21,187.31,719,258,712.87,294.35Z" transform="translate(-3.26 -4.08)"/></g></g></g></svg>