<svg xmlns="http://www.w3.org/2000/svg" xmlns:xlink="http://www.w3.org/1999/xlink" viewBox="0 0 581.68 289.02"><defs><style>.cls-1{fill:none;}.cls-2{clip-path:url(#clip-path);}.cls-3{fill:#b7e3fa;}</style><clipPath id="clip-path" transform="translate(-2.9 -17.39)"><rect id="SVGID" class="cls-1" width="587.48" height="310.48"/></clipPath></defs><title>Asset 29</title><g id="Layer_2" data-name="Layer 2"><g id="Layer_1-2" data-name="Layer 1"><g class="cls-2"><path class="cls-3" d="M3.81,214.23c21.92,129.73,570.3,110.86,580.7,15.6C585.92,216.9,568,190,532.24,136.27,492.4,76.4,480,74.09,474.17,73.89c-26.14-.91-28,53.88-58.07,62.38-21.53,6.09-41.8-14.48-81.29-54.58-43.2-43.86-39.22-56.25-58.07-62.38C239.17,7.09,225.61,57,166.4,58.3c-31.42.68-40.89-13.11-58.07,0C85.7,75.57,85.6,112.17,61.88,120.67c-13.36,4.79-18.25-5-29,0C10.29,131.23-.42,189.22,3.81,214.23Z" transform="translate(-2.9 -17.39)"/></g></g></g></svg>