<svg xmlns="http://www.w3.org/2000/svg" xmlns:xlink="http://www.w3.org/1999/xlink" viewBox="0 0 716.12 355.32"><defs><style>.cls-1{fill:none;}.cls-2{clip-path:url(#clip-path);}.cls-3{fill:#d7522f;}</style><clipPath id="clip-path" transform="translate(-3.28 -4.03)"><rect id="SVGID" class="cls-1" width="722.68" height="363.39"/></clipPath></defs><title>Asset 32</title><g id="Layer_2" data-name="Layer 2"><g id="Layer_1-2" data-name="Layer 1"><g class="cls-2"><path class="cls-3" d="M718.8,291C696.61,419.47,4.43,337.37,3.29,282.9,3,267.24,59.76,255.68,68.93,202.18c4.12-24-5.74-30.93,0-48.43,12.81-39.08,67-19.94,111.59-64.57,35.25-35.25,20.35-66.06,45.95-80.72,48.39-27.72,99.15,83.66,210.06,88.79,33.42,1.54,36.82-8.2,59.08,0C556.3,119.6,573,207.44,613.77,202.18c15.83-2,17.35-15.75,32.82-16.14C681.84,185.16,725,255,718.8,291Z" transform="translate(-3.28 -4.03)"/></g></g></g></svg>