<svg xmlns="http://www.w3.org/2000/svg" xmlns:xlink="http://www.w3.org/1999/xlink" viewBox="0 0 592.17 306.36"><defs><style>.cls-1{fill:none;}.cls-2{clip-path:url(#clip-path);}.cls-3{fill:#672c30;}</style><clipPath id="clip-path" transform="translate(-2.96 -18.43)"><rect id="SVGID" class="cls-1" width="598.08" height="329.11"/></clipPath></defs><title>Asset 31</title><g id="Layer_2" data-name="Layer 2"><g id="Layer_1-2" data-name="Layer 1"><g class="cls-2"><path class="cls-3" d="M3.88,227.09c22.31,137.5,580.58,117.5,591.17,16.53,1.44-13.71-16.78-42.19-53.2-99.18C501.28,81,488.61,78.54,482.73,78.32c-26.62-1-28.56,57.11-59.12,66.12-21.93,6.46-42.56-15.35-82.76-57.85-44-46.49-39.93-59.62-59.12-66.12-38.25-13-52.05,40-112.32,41.32-32,.72-41.64-13.89-59.12,0C87.25,80.11,87.14,118.9,63,127.91c-13.6,5.08-18.58-5.35-29.56,0C10.48,139.1-.43,200.57,3.88,227.09Z" transform="translate(-2.96 -18.43)"/></g></g></g></svg>