<svg xmlns="http://www.w3.org/2000/svg" xmlns:xlink="http://www.w3.org/1999/xlink" viewBox="0 0 587.29 309.91"><defs><style>.cls-1{fill:none;}.cls-2{clip-path:url(#clip-path);}.cls-3{fill:#9c7b6a;}</style><clipPath id="clip-path" transform="translate(-2.93 -18.64)"><rect id="SVGID" class="cls-1" width="593.15" height="332.93"/></clipPath></defs><title>Asset 23</title><g id="Layer_2" data-name="Layer 2"><g id="Layer_1-2" data-name="Layer 1"><g class="cls-2"><path class="cls-3" d="M3.85,229.72C26,368.82,579.64,348.59,590.14,246.44c1.43-13.86-16.64-42.68-52.76-100.32-40.24-64.2-52.8-66.67-58.63-66.89-26.4-1-28.32,57.77-58.63,66.89-21.75,6.53-42.21-15.53-82.08-58.53-43.61-47-39.6-60.31-58.63-66.88C241.47,7.6,227.79,61.15,168,62.51c-31.73.73-41.29-14-58.63,0C86.53,81,86.43,120.28,62.48,129.4c-13.49,5.13-18.43-5.42-29.32,0C10.39,140.72-.42,202.9,3.85,229.72Z" transform="translate(-2.93 -18.64)"/></g></g></g></svg>