<svg xmlns="http://www.w3.org/2000/svg" viewBox="0 0 164.72 217.47"><defs><style>.cls-1{fill:#78c199;}.cls-2{fill:#71af8b;}</style></defs><title>Asset 53</title><g id="Layer_2" data-name="Layer 2"><g id="Layer_1-2" data-name="Layer 1"><path class="cls-1" d="M16.5,101.76c-3.5-7.5-10.66-14.55-14-28-1.48-6-4.79-19.3,0-34,8.67-26.56,36.78-36,40-37,20.72-6.58,38.29-.13,55,6,12.56,4.61,36.76,13.49,53,38,4.84,7.31,18.32,27.66,13,49-2.91,11.69-8.56,12-19,30-12.69,21.85-7.75,27.18-18,46-4.9,9-18.11,33.24-45,42-5.25,1.71-25.83,8.42-45-2-23.11-12.56-33.34-44.15-27-64,1.85-5.79,5.24-11,7-22C18.08,115.89,19,108.26,16.5,101.76Z"/><path class="cls-2" d="M46.37,211.84c-23.11-12.41-33.34-43.61-27-63.21,1.85-5.73,5.24-10.83,7-21.73,1.58-9.75,2.5-17.28,0-23.7-3.5-7.41-10.66-14.38-14-27.66-1.48-5.89-4.79-19.06,0-33.58C21,15.73,49.15,6.43,52.37,5.42c11.7-3.67,22.4-3.23,32.51-1.07C71.88.24,58.08-2.18,42.5,2.76c-3.22,1-31.33,10.44-40,37-4.79,14.7-1.48,28,0,34,3.34,13.44,10.5,20.5,14,28,2.5,6.5,1.58,14.13,0,24-1.76,11-5.15,16.2-7,22-6.34,19.85,3.89,51.43,27,64,9.87,5.36,20.11,6.18,28.44,5.49A47.75,47.75,0,0,1,46.37,211.84Z"/></g></g></svg>