<svg xmlns="http://www.w3.org/2000/svg" viewBox="0 0 332 114.52"><defs><style>.cls-1{fill:#33b981;}.cls-2{fill:#30aa73;}</style></defs><title>Asset 49</title><g id="Layer_2" data-name="Layer 2"><g id="Layer_1-2" data-name="Layer 1"><path class="cls-1" d="M2,39.76V0H332V40.28c-2.6-.8-5-1.49-7.37-2.26-8.62-2.82-15.26.7-16.93,9.55-.9,4.77-.67,9.74-1.08,14.61-.27,3.23.09,6.94-1.4,9.53s-4.84,5.43-7.51,5.56-6.37-2.34-8.06-4.76c-1.86-2.64-1.87-6.55-2.8-9.88-2.08-7.42-7.35-11-15.08-10.44-5.77.45-9.51,4.16-10.13,11.8-.66,8.11-.15,16.32-.41,24.47a112.23,112.23,0,0,1-1.35,16.41c-1.1,6.11-5.49,9.43-11.11,9.49-5.81.06-10.16-2.88-10.87-9.42-.89-8.25-.32-16.65-.43-25-.14-10.37.33-20.81-.73-31.08C235.87,40.41,230.63,34.36,222,32c-6.22-1.7-9.17-.19-11.29,5.84a41.13,41.13,0,0,1-2.05,5.69c-.8,2.35-3.7,3.69-5.55,3.63s-3.86-2.15-5-4.16a18.47,18.47,0,0,1-1.37-4c-1.29-4.59-3.45-8.3-8.76-8.95-5.49-.67-10.59.59-13.31,5.5S170.27,46,168.34,51.29c-1.52,4.21-2,9-4.37,12.6-1.69,2.55-4.71,5.87-8.73,4.73-3.22-.91-5.11-4.14-6.26-7-1.55-3.89-1.64-8.35-2.54-12.53-.95-4.41-3.55-7.34-8.24-7.76-5-.45-9.25,1.68-10.78,6.32a66.73,66.73,0,0,0-3.16,16.69c-.73,11.79-.74,23.63-1.22,35.44a52.83,52.83,0,0,1-.17,7.25c-.37,4-6.59,4.61-10.13,4.73-3,.1-7.74-3.06-8.7-5.84a84.63,84.63,0,0,1-4.15-21.44c-.92-12.61-.81-25.29-1.45-37.93A25.36,25.36,0,0,0,96,36c-1.18-2.19-4.57-4.64-6.74-4.45s-5.15,3-6.23,5.41c-1.39,3-1.16,6.78-1.8,10.19C80.45,51.08,78.45,54,74,54.22c-4.64.27-6.5-2.72-7.41-6.61-.8-3.36-1.36-6.79-2.1-10.17-1-4.66-3.7-7.84-8.69-8-5.36-.15-8.48,3.27-9.24,8.09a169.22,169.22,0,0,0-1.51,18.85c-.33,7.94,0,15.93-.61,23.84s-4.19,11.61-10,11.53C28,91.67,24.38,87.61,23.75,79.44c-.4-5.09-.75-10.18-1-15.28C21.83,47.12,18.63,43.27,2,39.76Z"/><path class="cls-2" d="M114.83,111.4c-3,.1-7.77-3.09-8.73-5.89a86,86,0,0,1-4.17-21.61c-.92-12.72-.8-25.51-1.44-38.25A25.78,25.78,0,0,0,98,35c-1.19-2.21-4.58-4.68-6.77-4.48a5.79,5.79,0,0,0-2.84,1.3,10.23,10.23,0,0,1,5.21,4.25,25.83,25.83,0,0,1,2.49,10.67c.64,12.74.52,25.52,1.44,38.24a86,86,0,0,0,4.17,21.62c1,2.79,5.75,6,8.73,5.88a21.1,21.1,0,0,0,7.21-1.27C116.63,111.31,115.66,111.37,114.83,111.4Z"/><path class="cls-2" d="M69.41,47.07c-.8-3.46-1.36-7-2.11-10.44-1-4.79-3.72-8.06-8.74-8.2a9.09,9.09,0,0,0-4.83,1.1h.41c5,.15,7.71,3.41,8.75,8.2.75,3.47,1.31,7,2.11,10.44.92,4,2.79,7.06,7.46,6.77a7.58,7.58,0,0,0,3.63-1.08C72,53.76,70.28,50.82,69.41,47.07Z"/><path class="cls-2" d="M37.08,91.27c-6.55-.09-10.15-4.18-10.79-12.4-.4-5.12-.75-10.25-1-15.38-.91-17.16-4.12-21-20.86-24.56V0H0V40c16.73,3.53,20,7.41,20.85,24.56.27,5.13.63,10.26,1,15.38.64,8.22,4.23,12.32,10.79,12.4a9.71,9.71,0,0,0,4.86-1.08Z"/><path class="cls-2" d="M158,68.31c-3.18-.93-5-4.25-6.16-7.18-1.53-4-1.62-8.56-2.5-12.85-.93-4.52-3.49-7.52-8.1-8a11.13,11.13,0,0,0-6.14,1,14,14,0,0,1,1.82.05c4.62.43,7.18,3.43,8.11,8,.88,4.28,1,8.85,2.5,12.84,1.12,2.93,3,6.25,6.15,7.18a5.7,5.7,0,0,0,5-.93A6.53,6.53,0,0,1,158,68.31Z"/><path class="cls-2" d="M293.66,71.55c-1.9-2.65-1.91-6.57-2.87-9.9-2.13-7.43-7.54-11-15.47-10.45a12.18,12.18,0,0,0-4.22,1c7.78-.49,13.09,3.13,15.19,10.47,1,3.33,1,7.25,2.87,9.9,1.74,2.42,5.53,4.89,8.28,4.76a7.23,7.23,0,0,0,3.28-1.16A12.8,12.8,0,0,1,293.66,71.55Z"/><path class="cls-2" d="M202.55,42a17.4,17.4,0,0,1-1.44-4c-1.36-4.6-3.64-8.32-9.23-9A17.68,17.68,0,0,0,183,30a22.22,22.22,0,0,1,4.22.11c5.6.65,7.88,4.36,9.24,9a17,17,0,0,0,1.44,4c1.22,2,3.45,4.1,5.29,4.16A6.88,6.88,0,0,0,207,46,9.43,9.43,0,0,1,202.55,42Z"/><path class="cls-2" d="M329,37c-4.07-1.32-7.69-1.23-10.57.13a17.63,17.63,0,0,1,6.15.94c2.39.78,4.81,1.47,7.42,2.27v-2.4C331,37.63,330,37.33,329,37Z"/><path class="cls-2" d="M252.65,113.46c-6.15.06-10.75-2.88-11.49-9.41-.95-8.24-.34-16.64-.47-25-.15-10.36.36-20.79-.76-31.06-.93-8.46-6.47-14.5-15.62-16.87-3.72-1-6.34-.89-8.31.44a19.13,19.13,0,0,1,3.67.62c9.15,2.37,14.69,8.41,15.62,16.88,1.12,10.26.61,20.69.76,31.05.13,8.33-.48,16.73.47,25,.74,6.53,5.34,9.47,11.49,9.41a13.53,13.53,0,0,0,5.33-1.09Z"/></g></g></svg>