<svg xmlns="http://www.w3.org/2000/svg" viewBox="0 0 123.73 127.96"><defs><style>.cls-1{fill:#00a761;}.cls-2{fill:#009b54;}</style></defs><title>Asset 54</title><g id="Layer_2" data-name="Layer 2"><g id="Layer_1-2" data-name="Layer 1"><path class="cls-1" d="M15,35.65c-3.5.5-14.16,7.38-15,18-.72,9.11,8.46,17.1,14,23,7.77,8.29,12.13,7.17,16,14,3.45,6.09,1.59,8.71,5,17,2.31,5.63,6.47,12.45,11,16,11.39,8.92,32.1,2.37,44-5,24-14.82,28.75-43.53,31-57,2.6-15.61,7.31-43.82-9-56-11.89-8.88-30.31-5.78-41-1-10.24,4.59-11.7,10-24,18A92.14,92.14,0,0,1,15,35.65Z"/><path class="cls-2" d="M53.29,21.64c12.3-7.68,13.76-12.82,24-17.2A58.16,58.16,0,0,1,95.77.1,54.4,54.4,0,0,0,71,4.65c-10.24,4.58-11.7,10-24,18a90.71,90.71,0,0,1-24.6,11.18A94.3,94.3,0,0,0,53.29,21.64Z"/><path class="cls-2" d="M96.29,113.37c-11.9,7-32.61,13.3-44,4.78-4.53-3.39-8.69-9.91-11-15.29-3.41-7.92-1.55-10.42-5-16.24-3.87-6.53-8.23-5.46-16-13.38-5.53-5.64-14.72-13.27-14-22s8.57-14.71,13-16.6c-1.51.38-2.95.71-4.29,1-3.5.5-14.16,7.38-15,18-.72,9.11,8.46,17.1,14,23,7.77,8.29,12.13,7.17,16,14,3.45,6.09,1.59,8.71,5,17,2.31,5.63,6.47,12.45,11,16,11.39,8.92,32.1,2.37,44-5a53.62,53.62,0,0,0,9.12-7.11C98.23,112.17,97.28,112.79,96.29,113.37Z"/></g></g></svg>