<svg xmlns="http://www.w3.org/2000/svg" viewBox="0 0 74.56 68.11"><defs><style>.cls-1{fill:#b5d5c7;}.cls-2{fill:#a9c4b7;}</style></defs><title>Asset 52</title><g id="Layer_2" data-name="Layer 2"><g id="Layer_1-2" data-name="Layer 1"><path class="cls-1" d="M34.19,0C16.76.62-2.11,17.75.19,38c2.05,18.09,19.86,28.9,35,30,17,1.23,36.14-9.4,39-25,2.49-13.56-8.36-25.12-12-29C58.82,10.43,48.59-.48,34.19,0Z"/><path class="cls-2" d="M34.9,7c14.15-.5,24.2,10.41,27.51,14C65.3,24.08,72.8,32.22,74.3,42.37c2-13.28-8.52-24.54-12.1-28.35-3.37-3.59-13.6-14.5-28-14C16.76.62-2.11,17.75.19,38a29.41,29.41,0,0,0,1.19,5.55C.09,23.91,18.16,7.53,34.9,7Z"/></g></g></svg>