<svg xmlns="http://www.w3.org/2000/svg" viewBox="0 0 330 104.61"><defs><style>.cls-1{fill:#00a761;}.cls-2{fill:#029954;}</style></defs><title>Asset 43</title><g id="Layer_2" data-name="Layer 2"><g id="Layer_1-2" data-name="Layer 1"><path class="cls-1" d="M329.88,0H.34C-.15,13.14-.74,25.89,3.49,38.33,6.68,47.71,13.31,53.07,23,53.17c15.72.15,27,7.63,36,19.75a79.8,79.8,0,0,0,5.55,6.51C78.07,94.07,97.6,94,111,79.14c3.55-3.93,6.72-8.22,10.42-12,4.25-4.34,9.44-7.89,15.73-6.21,7.92,2.11,15,.76,22.5-1.89,14.2-5,23-1.37,31.06,11.44,1.62,2.59,3,5.3,4.61,7.92,7.06,11.75,14.29,12.61,23.78,2.84,2.7-2.77,5.22-5.75,8.15-8.25,7.05-6,13.81-5.37,19.47,1.94,2.35,3,4.05,6.57,6,9.91,2.78,4.72,5.06,9.84,8.4,14.13,6,7.67,14.73,7.45,20.55-.35a66,66,0,0,0,6.54-11.71c2.93-6.32,7.26-9.46,14.56-9.93,15.4-1,19.49-4.91,23.4-20C331,38.34,329.88,19.37,329.88,0Z"/><path class="cls-2" d="M265,93.36c-3.34-4.28-5.62-9.4-8.4-14.13-2-3.33-3.66-6.87-6-9.9-5.66-7.31-12.42-8-19.46-1.94-2.93,2.5-5.46,5.48-8.16,8.25-9.49,9.76-16.72,8.91-23.78-2.84-1.57-2.62-3-5.34-4.61-7.92-8.05-12.81-16.86-16.43-31.06-11.45-7.54,2.65-14.58,4-22.5,1.9-6.29-1.68-11.48,1.87-15.73,6.2-3.7,3.78-6.86,8.07-10.42,12-13.43,14.83-33,14.94-46.54.3a78.29,78.29,0,0,1-5.55-6.52c-9-12.11-20.23-19.59-35.95-19.75-9.68-.09-16.31-5.46-19.5-14.83C3.73,22.06,3.65,11.17,4,0H.34C-.15,13.14-.74,25.89,3.49,38.33,6.68,47.71,13.31,53.07,23,53.17c15.72.15,27,7.63,36,19.75a79.8,79.8,0,0,0,5.55,6.51C78.07,94.07,97.6,94,111,79.14c3.55-3.93,6.72-8.22,10.42-12,4.25-4.34,9.44-7.89,15.73-6.21,7.92,2.11,15,.76,22.5-1.89,14.2-5,23-1.37,31.06,11.44,1.62,2.59,3,5.3,4.61,7.92,7.06,11.75,14.29,12.61,23.78,2.84,2.7-2.77,5.22-5.75,8.15-8.25,7.05-6,13.81-5.37,19.47,1.94,2.35,3,4.05,6.57,6,9.91,2.78,4.72,5.06,9.84,8.4,14.13,6,7.67,14.73,7.45,20.55-.35a42.62,42.62,0,0,0,2.79-4.29C278.72,100.82,270.66,100.58,265,93.36Z"/><path class="cls-2" d="M306.68,71.38c-7.24.47-11.55,3.56-14.48,9.77,2.63-2.52,6-3.86,10.61-4.16,11.57-.74,16.75-3.14,20.27-10.69C319.63,69.56,314.68,70.87,306.68,71.38Z"/></g></g></svg>