<svg xmlns="http://www.w3.org/2000/svg" viewBox="0 0 117.54 101.72" preserveAspectRatio ="none"><defs><style>.cls-1{fill:#f3f3e9;}</style></defs><title>Asset 82</title><g id="Layer_2" data-name="Layer 2"><g id="Layer_1-2" data-name="Layer 1"><path class="cls-1" d="M24.93,0H0V92l19.48,6.79c4.86,1.66,16.55,2.49,16.55,2.49a79.33,79.33,0,0,0,13.51.29c12.62-.88,19.67-5,22.52-6.93,18.23-12.34,19.31-39,19.48-43.16.08-2.08,0-4,0-5.88h0c-.37-9-1.65-15.38,3.92-20.49A170,170,0,0,1,110,14.23c2.61-1.76,5.65-3.72,6.92-7.23a9.84,9.84,0,0,0-.11-7H24.93"/></g></g></svg>