<svg xmlns="http://www.w3.org/2000/svg" viewBox="0 0 118.54 102.72" preserveAspectRatio ="none"><defs><style>.cls-1{fill:none;stroke:#fff;stroke-miterlimit:10;}</style></defs><title>Asset 89</title><g id="Layer_2" data-name="Layer 2"><g id="Layer_1-2" data-name="Layer 1"><path class="cls-1" d="M25.43.5H.5v92L20,99.27c4.86,1.66,16.55,2.49,16.55,2.49a79.33,79.33,0,0,0,13.51.29c12.62-.88,19.67-5,22.52-6.93C90.79,82.78,91.87,56.14,92,52c.08-2.08,0-4,0-5.88h0c-.37-9-1.65-15.38,3.92-20.49a170,170,0,0,1,14.61-10.87c2.61-1.76,5.65-3.72,6.92-7.23a9.84,9.84,0,0,0-.11-7H25.43"/></g></g></svg>