<svg xmlns="http://www.w3.org/2000/svg" viewBox="0 0 117.52 77.82" preserveAspectRatio ="none"><defs><style>.cls-1{fill:#1b325b;}</style></defs><title>Asset 83</title><g id="Layer_2" data-name="Layer 2"><g id="Layer_1-2" data-name="Layer 1"><path class="cls-1" d="M0,10.74V77.82H117.52A43.62,43.62,0,0,0,104,58.58l-.15-.13-.09,0a44.07,44.07,0,0,0-14.07-7.61c-6.66-2.12-8.62-1-14.78-3.26a37.32,37.32,0,0,1-13.8-9c-1.4-1.41-3.21-3.46-9.85-16.32-.39-.75-.74-1.43-1.07-2.09C45.84,10.7,45.61,9.46,43.49,7.34,40.17,4,34.05.34,21.75,0,21.75,0,5.93,0,0,8.25V9.92"/></g></g></svg>