<svg xmlns="http://www.w3.org/2000/svg" viewBox="0 0 65.2 65.22"><defs><style>.cls-1{fill:#c1aed3;}.cls-2{fill:#b2a3c4;}</style></defs><title>Asset 57</title><g id="Layer_2" data-name="Layer 2"><g id="Layer_1-2" data-name="Layer 1"><path class="cls-1" d="M15.43,40.2a12.39,12.39,0,0,0-4-5c-3.48-2.48-6.09-1.2-8-3-3.18-3-2.11-12.32,3-17,4.32-4,8-1.34,15-6,4.6-3,4.12-4.86,8-7,7.38-4.06,16.06-1.31,17-1,14,4.64,17.5,22.2,18,25,.66,3.63,2.56,14.18-4,24s-17.6,13.29-26,13c-2.66-.09-10.17-.36-13-5-1.43-2.34-.73-4.25-2-9A32.08,32.08,0,0,0,15.43,40.2Z"/><path class="cls-2" d="M37.19,59.75c-2.66-.09-10.17-.35-13-5-1.43-2.34-.73-4.25-2-9a32.37,32.37,0,0,0-4-9,12.47,12.47,0,0,0-4-5c-3.49-2.47-6.09-1.2-8-3C3.85,26.55,3.82,21,6,16.27a9.59,9.59,0,0,0-1.18.93c-5.11,4.68-6.19,14-3,17,1.91,1.8,4.51.52,8,3a12.56,12.56,0,0,1,4,5,32.37,32.37,0,0,1,4,9c1.27,4.75.57,6.66,2,9,2.83,4.64,10.34,4.91,13,5,8.39.29,19.52-3.32,26-13,.18-.28.33-.55.51-.83A31.22,31.22,0,0,1,37.19,59.75Z"/></g></g></svg>