<svg xmlns="http://www.w3.org/2000/svg" viewBox="0 0 283.36 241.11"><defs><style>.cls-1{fill:#bcbcde;}</style></defs><title>Asset 67</title><g id="Layer_2" data-name="Layer 2"><g id="Layer_1-2" data-name="Layer 1"><path class="cls-1" d="M283.36,119.11c-3.19-.72-7.79-1.18-12,1-7.18,3.72-9.05,13-10,17-6.48,27.63-26,37.34-21,45,2.36,3.58,6.52,1.85,10,6,4.89,5.83,6,17.65-1,25-4.1,4.3-11.06,7.12-18,5-5.59-1.71-4.73-7.05-11-10-6.9-3.25-14.13-.36-15,0-6,2.5-8.9,7.45-11,11-3.49,5.93-1.92,7.38-5,12-3.31,5-9.51,9.89-16,10s-11.5-4.76-14-7c-8.55-7.67-30.7-13.11-75-24-14.2-3.49-21.89-5-26-12-4.93-8.41-1.1-18.63,0-23,8-31.47-48.29-43.65-57-86-.83-4-4.7-22.86,6-39s31.05-23.24,47-22a69.1,69.1,0,0,1,22,6c11.12,5.44,12.26,10.38,18,10,11.55-.76,20.56-21.66,22-25,2.66-6.16,2.21-7.82,5-11,5.52-6.28,16.34-10.13,25-7,7.94,2.87,8.59,9.62,16,11,6.23,1.16,8.65-5.34,14-4,4,1,3.87,4.53,10,11,4.94,5.21,9.9,8.07,15,11,7.41,4.26,8.48,3.37,15,7,11.24,6.25,9.63,9.76,17,13,9.22,4,14.12-.37,30,1a80.5,80.5,0,0,1,19,4Z"/></g></g></svg>