<svg xmlns="http://www.w3.org/2000/svg" viewBox="0 0 253.7 251.03"><defs><style>.cls-1{fill:#9570bb;}.cls-2{fill:#8366aa;}</style></defs><title>Asset 1</title><g id="Layer_2" data-name="Layer 2"><g id="Layer_1-2" data-name="Layer 1"><path class="cls-1" d="M45.9,160.6a50.89,50.89,0,0,1-17-5c-20.24-10.14-26.37-30.73-27-33-6.15-21.91,3.47-44.25,17-56,12.53-10.89,30.54-14.53,33-15,6.94-1.34,7.6-.39,12-2,12.71-4.67,14.85-15.42,26-27a73.23,73.23,0,0,1,26-17c20.13-8.33,38.93-5.25,46-4,35.12,6.19,56.15,32.44,63,41,21.18,26.46,36.16,67.76,25,112,0,0-14.26,56.58-71,85-10.56,5.29-27.29,13.39-49,11-7.16-.79-25.51-3.09-40-18-2.39-2.46-14.73-15.16-16-33-.37-5.18.52-6.15,0-10C72.26,177.6,61,168.12,45.9,160.6Z"/><path class="cls-2" d="M185.28,229.48c-10.54,5.3-27.24,13.42-48.91,11-7.14-.79-25.47-3.09-39.93-18-2.38-2.46-14.71-15.18-16-33-.36-5.18.53-6.15,0-10-1.63-12-12.88-21.5-27.95-29a50.29,50.29,0,0,1-17-5c-20.19-10.15-26.32-30.77-26.95-33-4-14.24-1.33-28.66,4.72-40.25C2.92,84.57-3.36,103.65,1.89,122.43c.64,2.27,6.76,22.9,27,33a50.12,50.12,0,0,0,17,5c15.07,7.54,26.32,17,28,29,.52,3.86-.37,4.82,0,10,1.27,17.87,13.59,30.59,16,33,14.47,14.94,32.79,17.24,39.93,18,21.68,2.39,38.37-5.72,48.91-11,28-14.07,45.65-35,56.32-52.63A136.88,136.88,0,0,1,185.28,229.48Z"/></g></g></svg>