<svg xmlns="http://www.w3.org/2000/svg" viewBox="0 0 141 155.25"><defs><style>.cls-1{fill:#632689;}.cls-2{fill:#542277;}</style></defs><title>Asset 59</title><g id="Layer_2" data-name="Layer 2"><g id="Layer_1-2" data-name="Layer 1"><path class="cls-1" d="M19.92,65.14a44.57,44.57,0,0,1-2,8c-2.12,5.26-6,7.18-9,10-8.88,8.37-8.13,23-8,25,.74,11.57,7.77,19.3,13,25,14.33,15.65,32.68,19.86,39,21,20.29,3.68,35.7-2.59,49-8,10.53-4.28,18.47-7.65,23-16,2.59-4.78,5.77-14.35,4-23a46.62,46.62,0,0,1-1-6c-.23-2.46-.73-7.92,1-13,1.65-4.84,4-5.46,7-10,4.46-6.76,4.79-13.83,5-17,.66-9.85-2.77-17.3-5-22-7.37-15.53-19.77-23.66-25-27C93.54,1.06,76.38.36,68.92.14c-6.28-.18-10.42-.44-16,1-1.36.36-20.48,5.64-29,24-3.24,7-5.59,17.28-4,24a30.92,30.92,0,0,1,1,8A40.91,40.91,0,0,1,19.92,65.14Z"/><path class="cls-2" d="M20.28,137.45c-5.22-5.68-12.25-13.36-13-24.86-.13-2-.87-16.53,8-24.85,3-2.81,6.88-4.71,9-9.94a43.64,43.64,0,0,0,2-8,40.4,40.4,0,0,0,1-8,30.48,30.48,0,0,0-1-8c-1.59-6.69.76-16.91,4-23.87,8.52-18.26,27.64-23.51,29-23.86,5.58-1.43,9.72-1.17,16-1,7.46.21,24.62.91,42,11.93l.2.13a85.61,85.61,0,0,0-7.41-5.21C92.69,1.05,75.53.35,68.07.14c-6.28-.18-10.42-.44-16,1-1.36.35-20.49,5.6-29,23.86-3.24,7-5.59,17.18-4,23.86a30.55,30.55,0,0,1,1,8,42.17,42.17,0,0,1-1,8,44.57,44.57,0,0,1-2,8c-2.12,5.23-6,7.14-9,9.94C-.81,91-.06,105.54.07,107.52c.74,11.49,7.77,19.18,13,24.85a64.68,64.68,0,0,0,14,11.42A63.32,63.32,0,0,1,20.28,137.45Z"/></g></g></svg>