<svg xmlns="http://www.w3.org/2000/svg" viewBox="0 0 22.41 24.49"><defs><style>.cls-1{fill:#f3f3e9;}.cls-2{fill:#e2e2de;}</style></defs><title>Asset 56</title><g id="Layer_2" data-name="Layer 2"><g id="Layer_1-2" data-name="Layer 1"><path class="cls-1" d="M22,10.23a16.29,16.29,0,0,1-2.08,7c-.93,1.65-3.4,6-8.31,7-.86.18-5.84,1.09-8.31-2-1.86-2.33-1.45-5.88,0-8s3.28-1.88,4.16-4-.51-3,0-5c.73-2.85,5-6.14,9.35-5A7.72,7.72,0,0,1,22,10.23Z"/><path class="cls-2" d="M4,22.23c-2.17-2.33-1.69-5.89,0-8s3.82-1.88,4.84-4-.59-3,0-5C9.46,3,12.59.55,16.34.08c-4.78-.62-9.24,2.45-10,5.15-.58,2,1,3,0,5s-3.17,1.91-4.84,4-2.17,5.67,0,8,5.71,2.38,7.93,2.22A8.15,8.15,0,0,1,4,22.23Z"/></g></g></svg>