<svg xmlns="http://www.w3.org/2000/svg" viewBox="0 0 35.01 35.5"><defs><style>.cls-1{fill:#5e428f;}.cls-2{fill:#523d7f;}</style></defs><title>Asset 63</title><g id="Layer_2" data-name="Layer 2"><g id="Layer_1-2" data-name="Layer 1"><path class="cls-1" d="M11.4,10.49c-2.19,1.84-3.9.74-7,3a10.82,10.82,0,0,0-4,5c-1.78,5.28,2.7,12,8,15a16.79,16.79,0,0,0,9,2c1.07,0,10.34-.5,15-8,.6-1,4-6.44,2-11-1.38-3.17-4.07-3-6-7-1.69-3.51-.3-5-2-7-2.38-2.78-8.13-3.4-11-1S14.65,7.74,11.4,10.49Z"/><path class="cls-2" d="M13.4,6.65a10.66,10.66,0,0,0,1.15-4.23C13.69,3.68,13.65,5.17,13.4,6.65Z"/><path class="cls-2" d="M33.29,24.93c-4.66,7.51-13.93,8-15,8a16.69,16.69,0,0,1-9-2C4.4,28.17.21,22.22,1,17.16a8,8,0,0,0-.6,1.33c-1.78,5.28,2.7,12,8,15a16.79,16.79,0,0,0,9,2c1.07,0,10.34-.5,15-8a19.23,19.23,0,0,0,2.24-5.1A21.91,21.91,0,0,1,33.29,24.93Z"/></g></g></svg>